<svg width="32" height="32" viewBox="-2 -2 32 32" fill="none" xmlns="http://www.w3.org/2000/svg">
<path d="M14.0026 13.4154C13.2291 13.4154 12.4872 13.1081 11.9402 12.5611C11.3932 12.0141 11.0859 11.2722 11.0859 10.4987C11.0859 9.72515 11.3932 8.98328 11.9402 8.4363C12.4872 7.88932 13.2291 7.58203 14.0026 7.58203C14.7762 7.58203 15.518 7.88932 16.065 8.4363C16.612 8.98328 16.9193 9.72515 16.9193 10.4987C16.9193 10.8817 16.8438 11.261 16.6973 11.6149C16.5507 11.9687 16.3358 12.2903 16.065 12.5611C15.7942 12.8319 15.4726 13.0468 15.1188 13.1933C14.7649 13.3399 14.3856 13.4154 14.0026 13.4154ZM14.0026 2.33203C11.8367 2.33203 9.75945 3.19245 8.2279 4.72399C6.69635 6.25554 5.83594 8.33276 5.83594 10.4987C5.83594 16.6237 14.0026 25.6654 14.0026 25.6654C14.0026 25.6654 22.1693 16.6237 22.1693 10.4987C22.1693 8.33276 21.3089 6.25554 19.7773 4.72399C18.2458 3.19245 16.1685 2.33203 14.0026 2.33203Z" fill="white"/>
</svg>
