<svg width="49" height="49" viewBox="0 0 49 49" fill="none" xmlns="http://www.w3.org/2000/svg">
<g clip-path="url(#clip0_2010_1003)">
<path d="M24.5021 15H24.4976C19.5396 15 15.5078 19.1158 15.5078 24.1768C15.5078 26.1842 16.1418 28.0448 17.2197 29.5555L16.099 32.9647L19.5553 31.8371C20.9772 32.7984 22.6733 33.3536 24.5021 33.3536C29.4601 33.3536 33.4919 29.2367 33.4919 24.1768C33.4919 19.1169 29.4601 15 24.5021 15ZM29.7343 27.9588C29.5174 28.584 28.6564 29.1024 27.9696 29.2539C27.4998 29.356 26.8861 29.4374 24.8202 28.5633C22.1776 27.446 20.4759 24.7056 20.3433 24.5278C20.2163 24.35 19.2755 23.0767 19.2755 21.7599C19.2755 20.443 19.9308 19.8018 20.1949 19.5265C20.4118 19.3005 20.7704 19.1972 21.1143 19.1972C21.2256 19.1972 21.3257 19.203 21.4156 19.2076C21.6797 19.219 21.8123 19.2351 21.9866 19.6607C22.2035 20.1941 22.7318 21.5109 22.7947 21.6463C22.8588 21.7817 22.9229 21.9652 22.8329 22.143C22.7486 22.3265 22.6745 22.408 22.5418 22.564C22.4092 22.72 22.2833 22.8393 22.1507 23.0068C22.0293 23.1524 21.8922 23.3084 22.045 23.578C22.1979 23.8418 22.7262 24.7217 23.504 25.4283C24.5077 26.3402 25.3215 26.6316 25.6126 26.7555C25.8295 26.8472 26.0881 26.8254 26.2465 26.6534C26.4477 26.432 26.6961 26.0649 26.949 25.7036C27.1289 25.4443 27.3559 25.4122 27.5942 25.504C27.837 25.59 29.1217 26.2381 29.3859 26.3723C29.65 26.5077 29.8242 26.5719 29.8883 26.6855C29.9513 26.7991 29.9513 27.3325 29.7343 27.9588Z" fill="#FF471D"/>
</g>
<defs>
<clipPath id="clip0_2010_1003">
<rect width="17.9841" height="18.3536" fill="white" transform="translate(15.5078 15)"/>
</clipPath>
</defs>
</svg>
