<svg width="49" height="49" viewBox="0 0 49 49" fill="none" xmlns="http://www.w3.org/2000/svg">
<g clip-path="url(#clip0_2010_873)">
<path d="M15.0208 23.8498L19.1647 25.4282L20.7686 30.6924C20.8712 31.0296 21.2752 31.1542 21.5434 30.9305L23.8532 29.0087C24.0954 28.8074 24.4402 28.7974 24.6933 28.9848L28.8594 32.0717C29.1463 32.2845 29.5527 32.1241 29.6246 31.7703L32.6766 16.7882C32.7551 16.4018 32.3831 16.0795 32.0225 16.2218L15.0159 22.9172C14.5962 23.0824 14.5999 23.6888 15.0208 23.8498ZM20.5101 24.588L28.6088 19.4975C28.7544 19.4063 28.9041 19.6071 28.7791 19.7254L22.0953 26.066C21.8604 26.2892 21.7089 26.5878 21.6659 26.912L21.4383 28.634C21.4081 28.8639 21.0917 28.8867 21.0295 28.6642L20.1538 25.5242C20.0536 25.166 20.1997 24.7835 20.5101 24.588Z" fill="#FF471D"/>
</g>
<defs>
<clipPath id="clip0_2010_873">
<rect width="17.9841" height="18.3536" fill="white" transform="translate(14.7031 15)"/>
</clipPath>
</defs>
</svg>
