<svg width="198" height="60" viewBox="0 0 198 60" fill="none" xmlns="http://www.w3.org/2000/svg">
<g id="Group 1948754646">
<path id="Vector" d="M85.1416 19.1761C85.1416 19.1761 85.1484 19.1692 85.1484 19.1623L84.0234 17.2598C84.0303 17.2907 84.0441 17.3217 84.0578 17.3458C84.4156 17.9547 84.7769 18.5637 85.1416 19.1726V19.1761Z" fill="white"/>
<path id="Vector_2" d="M85.625 19.9932C85.742 20.1859 85.8555 20.3785 85.9725 20.5712L85.6284 19.9863C85.6284 19.9863 85.6284 19.9863 85.6284 19.9898L85.625 19.9932Z" fill="white"/>
<path id="Vector_3" d="M107.939 37.6356C112.941 36.8615 117.193 30.1321 116.581 23.9635C115.965 17.7743 110.873 13.0128 104.688 13.257C116.192 17.2204 116.54 31.1608 107.935 37.6356H107.939Z" fill="white"/>
<path id="Vector_4" d="M62.1926 13.6392C56.024 12.9511 50.7052 17.2103 49.5217 23.4133C48.3864 29.3686 51.4105 36.2597 55.6662 37.4054C48.7063 30.0361 50.9701 16.3778 62.1961 13.6392H62.1926Z" fill="white"/>
<path id="Vector_5" d="M77.3156 27.2466C74.1849 35.2902 67.0117 39.2226 58.9234 39.4393C54.9738 39.546 51.0174 39.4462 47.0678 39.4221C40.6549 39.3774 34.2352 39.3155 27.8223 39.2639C25.9783 39.2467 24.2787 38.9026 23.1675 37.2237C20.3946 33.0299 22.9026 27.1124 27.8258 26.2592C29.4634 25.9771 31.1148 25.8085 32.7455 25.492C34.9542 25.0688 36.7295 23.9026 37.5861 21.7833C38.976 18.3567 39.1412 14.8062 37.4932 11.445C35.0196 6.39792 30.5953 4.05502 25.2042 3.61809C21.6744 3.3291 18.1067 3.52864 14.5562 3.52176C14.3911 3.52176 14.2363 3.52176 14.0918 3.51832L13.6308 3.51144C13.5826 3.51144 13.5344 3.508 13.4897 3.508L11.6422 3.48392V0.480469L11.4599 0.58712L0 7.20297L1.50689 8.06994L3.72249 9.34632L5.90369 10.6055L11.7007 13.9461V10.8601H13.6342C17.0712 10.9186 20.5115 10.8773 23.945 11.07C27.2409 11.2557 28.8132 12.7489 29.0918 15.5184C29.4703 19.2821 27.9634 22.0585 24.9427 22.8498C23.0643 23.3383 21.1205 23.562 19.2076 23.9232C16.07 24.5149 14.1812 26.4897 13.7581 29.5585C13.4312 31.9083 13.3211 34.3716 13.617 36.718C14.4427 43.2444 18.5574 46.7776 25.1251 46.8636C30.8533 46.9393 36.5781 47.0116 42.3063 46.9909C49.0013 46.9634 55.71 47.0563 62.3913 46.6882C70.1528 46.2616 76.7755 42.8143 81.3925 36.5941L82.3523 35.2902L77.3087 27.25L77.3156 27.2466Z" fill="#FF471D"/>
<path id="Vector_6" d="M85.1475 19.1448C89.0627 13.0416 94.2129 9.1643 100.474 7.62989C107.431 5.9269 115.275 9.01292 120.37 15.3501C120.786 14.373 121.244 13.4097 121.777 12.4843C112.351 1.82253 99.3528 0.480783 88.9285 10.162L88.9078 10.1827C88.5741 10.506 88.2473 10.8432 87.9308 11.1941L83.2656 16.0003C83.5133 16.4201 83.7645 16.8398 84.0122 17.2629C84.3906 17.8753 84.7725 18.5049 85.1475 19.1483V19.1448Z" fill="white"/>
<path id="Vector_7" d="M120.003 16.258C115.125 9.9277 107.453 6.80727 100.689 8.46553C94.5237 9.97586 89.4594 13.8532 85.6406 19.9805C85.7542 20.18 85.8677 20.3761 85.9812 20.5722L86.05 20.6892C86.917 22.1204 87.8149 23.2282 88.7473 24.766C89.6074 23.4037 90.1716 22.6881 90.8941 21.7488C92.4629 19.7156 93.9354 17.5619 95.7657 15.7832C101.391 10.3061 110.521 10.9736 115.331 17.1628C116.422 18.5734 117.124 20.2832 117.987 21.8314C118.658 19.9942 119.27 18.1055 120.003 16.2614V16.258Z" fill="white"/>
<path id="Vector_8" d="M146.943 14.4625C146.206 16.1345 145.649 17.8134 145.219 19.5199C144.559 22.1586 144.273 24.8765 144.273 27.5944V34.0967H148.047C147.073 21.6219 149.798 14.5244 150.462 13.0107C149.571 12.2228 148.505 11.2974 147.393 10.5852C145.026 9.06111 142.085 8.31455 139.116 8.49001L139.006 8.49689C135.896 8.64139 132.951 9.54621 130.718 11.0462C126.325 13.9946 125.114 18.0611 123.579 23.2148C122.437 27.0543 121.14 31.4029 118.243 36.2126C116.991 38.2906 111.297 43.9809 104 43.9844H103.955C98.2201 43.9672 94.0297 40.6541 92.4919 39.2298C88.5492 35.5761 87.2659 33.5772 84.9299 29.9511C84.2763 28.9362 83.5366 27.7837 82.6318 26.4385C76.1742 16.8123 72.2762 10.998 66.0285 9.25378C60.4172 7.6884 53.8874 9.37075 49.7761 13.4407C43.8621 19.2997 43.3151 29.5726 48.4344 37.9672C49.6282 37.9672 50.9872 37.9706 51.7303 37.9672H53.9046L51.3553 35.4179L51.3484 35.411C48.5583 32.005 47.9459 27.9247 48.689 23.466C50.0135 15.529 57.6202 10.6368 65.306 12.7114C69.345 13.802 72.2831 16.451 74.5193 19.7848C77.8909 24.8249 80.9322 30.0818 84.2487 35.1598C87.2625 39.7734 90.8336 43.8709 96.1731 45.9076C107.757 50.3353 121.257 43.6059 124.728 31.6644C125.829 27.8765 126.617 23.9889 127.814 20.232C129.314 15.529 132.624 12.8214 137.609 12.3467C140.922 12.0336 144.039 12.5978 146.95 14.4659L146.943 14.4625Z" fill="white"/>
<path id="Vector_9" d="M41.7906 34.2647C42.0968 35.0594 42.458 35.8438 42.8708 36.6145L42.8846 36.642L43.4867 37.9528H46.1633C46.2975 37.9528 46.786 37.9562 47.4293 37.9597C42.3961 29.314 43.0807 18.8587 49.1702 12.8277C53.4913 8.54443 60.3617 6.77608 66.2585 8.42402C72.8125 10.2543 76.7758 16.1649 83.3434 25.9562C84.2517 27.3117 84.9948 28.4642 85.6485 29.4826C87.9467 33.0537 89.2127 35.0181 93.0728 38.5961C94.535 39.9516 98.5224 43.103 103.955 43.1237H103.999C111.5 43.1237 116.777 36.9826 117.506 35.7681C120.348 31.0514 121.625 26.7578 122.753 22.9665C124.274 17.861 125.588 13.4504 130.236 10.33C132.599 8.74397 135.699 7.78755 138.964 7.63617H139.067C142.219 7.45039 145.342 8.24168 147.861 9.8621C149.007 10.5983 150.094 11.5376 150.998 12.3392C152.942 10.8254 155.333 9.44581 157.749 8.44122C158.636 8.05934 159.589 7.76347 160.583 7.56392C166.941 6.27378 173.574 9.23939 177.09 14.9401C178.349 16.9802 180.699 25.1855 182.419 31.1821L182.502 31.4677C183.569 35.1833 185.464 40.3783 189.62 42.5491C193.467 44.5583 196.047 44.3794 197.977 44.0078L197.953 39.9138H194.378C190.58 39.4115 187.958 37.2303 186.403 33.4459C185.774 31.9115 185.285 30.3186 184.835 28.7257C183.682 24.6488 182.777 20.4929 181.425 16.4883C178.931 9.09833 173.643 5.18318 165.833 4.56047C160.556 4.14419 155.695 5.11093 151.37 8.33113C150.837 7.98709 150.359 7.68778 149.887 7.3747C142.301 2.30703 127.587 2.88157 122.12 14.5307C120.596 17.7681 119.626 21.2669 118.435 24.6592C117.606 27.0296 117.073 29.5376 116 31.7842C113.299 37.4333 108.751 39.9207 102.802 39.2808C99.5992 38.9402 96.7816 37.5709 94.6932 35.1902C92.371 32.5342 90.2655 29.6546 88.2769 26.7372C85.215 22.2475 82.5728 17.4516 79.3148 13.1201C73.8583 5.8747 66.5372 3.00542 57.5165 4.97332C44.2642 7.86668 36.9809 21.9997 41.7768 34.2647H41.7802H41.7906Z" fill="white"/>
<path id="Vector_10" d="M197.993 44.8746C197.336 44.995 196.589 45.0913 195.743 45.0913C194.026 45.0913 191.893 44.6957 189.23 43.3058C184.782 40.9801 182.793 35.5683 181.682 31.7014L181.599 31.4158C179.993 25.8046 177.56 17.3275 176.366 15.3905C173.036 9.99602 166.768 7.18867 160.761 8.40656C159.822 8.59578 158.924 8.87445 158.088 9.23569L157.919 8.84005L158.084 9.23569C155.721 10.2196 153.381 11.5717 151.496 13.0442L151.334 13.1749C150.966 13.9834 147.89 21.1944 148.909 34.1027H152.507V32.644C152.501 32.1245 152.49 31.6085 152.476 31.0993C152.394 27.7828 152.229 24.6211 152.607 21.5213C153.268 16.1061 156.622 13.0786 161.772 12.3045C167.332 11.4719 171.804 13.4811 174.165 18.2392C175.348 20.6233 176.081 23.2518 176.848 25.8183C178.014 29.7094 178.809 33.7209 180.161 37.5397C182.903 45.2874 187.871 48.5902 196.107 48.5902H197.962V47.4755C197.993 47.362 198.006 47.2416 198.003 47.1177L197.989 44.8677L197.993 44.8746Z" fill="white"/>
<path id="Vector_11" d="M52.2401 52.627H14.4062V53.2841H52.2401V52.627Z" fill="white"/>
<path id="Vector_12" d="M52.2401 54.625H14.4062V55.2821H52.2401V54.625Z" fill="white"/>
<path id="Vector_13" d="M52.2401 56.6191H14.4062V57.2763H52.2401V56.6191Z" fill="white"/>
<path id="Vector_14" d="M53.3438 52.0434H55.8071V58.9929H56.4607V52.0434H58.924V51.4551H53.3438V52.0434Z" fill="white"/>
<path id="Vector_15" d="M62.7949 53.3989C62.4268 53.3989 62.0621 53.4952 61.7009 53.6879C61.3397 53.8805 61.0507 54.1042 60.8305 54.3588V51.4551H60.2422V58.9895H60.8305V54.8645C61.0128 54.5996 61.2674 54.3794 61.5977 54.1971C61.928 54.0147 62.2651 53.9253 62.6023 53.9253C63.0323 53.9253 63.3592 54.025 63.5862 54.2246C63.8133 54.4241 63.9268 54.7716 63.9268 55.2705V58.9861H64.5151V55.1466C64.5151 53.9803 63.944 53.3955 62.7984 53.3955L62.7949 53.3989Z" fill="white"/>
<path id="Vector_16" d="M68.6553 53.3999C67.9019 53.3999 67.2757 53.6752 66.7734 54.2291C66.2711 54.783 66.0234 55.4573 66.0234 56.2554C66.0234 57.0983 66.278 57.7899 66.7906 58.3231C67.3033 58.8564 67.9569 59.1247 68.7551 59.1247C69.6152 59.1247 70.3239 58.8323 70.8916 58.244L70.5854 57.8587C70.1175 58.3644 69.5223 58.6155 68.7998 58.6155C68.1737 58.6155 67.6714 58.4091 67.2861 57.9928C66.9007 57.58 66.6943 57.0639 66.6633 56.4447H71.2287V56.2864C71.2287 55.4642 70.9982 54.7795 70.5407 54.2256C70.0796 53.6717 69.4535 53.3965 68.6553 53.3965V53.3999ZM66.6668 55.9871C66.6909 55.4538 66.8767 54.9722 67.2276 54.5456C67.5785 54.119 68.0498 53.9057 68.645 53.9057C69.278 53.9057 69.7666 54.119 70.1072 54.549C70.4512 54.9791 70.6232 55.4573 70.6335 55.9837H66.6668V55.9871Z" fill="white"/>
<path id="Vector_17" d="M75.6953 58.9929H76.3387V55.4218H80.3949V54.8335H76.3387V52.0434H80.474V51.4551H75.6953V58.9929Z" fill="white"/>
<path id="Vector_18" d="M82.3852 54.4746V53.5354H81.7969V58.9918H82.3852V55.0148C82.5125 54.7739 82.7361 54.5503 83.0526 54.3473C83.3691 54.1444 83.6616 54.0411 83.9334 54.0411C84.0606 54.0411 84.1604 54.048 84.2258 54.0652V53.4219C83.5343 53.4219 82.9184 53.7728 82.3852 54.4712V54.4746Z" fill="white"/>
<path id="Vector_19" d="M87.6944 53.3999C86.9409 53.3999 86.3148 53.6752 85.8125 54.2291C85.3102 54.783 85.0625 55.4573 85.0625 56.2554C85.0625 57.0983 85.3171 57.7899 85.8297 58.3231C86.3423 58.8564 86.996 59.1247 87.7942 59.1247C88.6543 59.1247 89.363 58.8323 89.9306 58.244L89.6244 57.8587C89.1565 58.3644 88.5614 58.6155 87.8389 58.6155C87.2127 58.6155 86.7104 58.4091 86.3251 57.9928C85.9398 57.58 85.7334 57.0639 85.7024 56.4447H90.2678V56.2864C90.2678 55.4642 90.0373 54.7795 89.5797 54.2256C89.1187 53.6717 88.4926 53.3965 87.6944 53.3965V53.3999ZM85.7058 55.9871C85.7299 55.4538 85.9157 54.9722 86.2666 54.5456C86.6176 54.119 87.0889 53.9057 87.6841 53.9057C88.3171 53.9057 88.8056 54.119 89.1462 54.549C89.4903 54.9791 89.6623 55.4573 89.6726 55.9837H85.7058V55.9871Z" fill="white"/>
<path id="Vector_20" d="M94.0928 53.3999C93.3394 53.3999 92.7132 53.6752 92.2109 54.2291C91.7086 54.783 91.4609 55.4573 91.4609 56.2554C91.4609 57.0983 91.7155 57.7899 92.2281 58.3231C92.7408 58.8564 93.3944 59.1247 94.1926 59.1247C95.0527 59.1247 95.7614 58.8323 96.3291 58.244L96.0229 57.8587C95.555 58.3644 94.9598 58.6155 94.2373 58.6155C93.6112 58.6155 93.1089 58.4091 92.7236 57.9928C92.3382 57.58 92.1318 57.0639 92.1008 56.4447H96.6662V56.2864C96.6662 55.4642 96.4357 54.7795 95.9782 54.2256C95.5171 53.6717 94.891 53.3965 94.0928 53.3965V53.3999ZM92.1043 55.9871C92.1284 55.4538 92.3142 54.9722 92.6651 54.5456C93.016 54.119 93.4873 53.9057 94.0825 53.9057C94.7155 53.9057 95.2041 54.119 95.5447 54.549C95.8887 54.9791 96.0607 55.4573 96.071 55.9837H92.1043V55.9871Z" fill="white"/>
<path id="Vector_21" d="M102.205 54.4197C101.724 53.7419 101.091 53.4013 100.306 53.4013C99.5839 53.4013 98.9956 53.6662 98.5449 54.1926C98.0943 54.719 97.8672 55.4139 97.8672 56.2706C97.8672 57.1272 98.0908 57.8291 98.5381 58.3486C98.9853 58.8681 99.5736 59.1295 100.306 59.1295C100.699 59.1295 101.06 59.0367 101.397 58.8474C101.731 58.6582 102.003 58.4174 102.205 58.125V58.9954H102.804V51.4609H102.205V54.4197ZM102.205 57.6261C102.04 57.8979 101.793 58.1284 101.459 58.3142C101.129 58.5034 100.778 58.5963 100.41 58.5963C99.8213 58.5963 99.3569 58.3795 99.0128 57.9426C98.6688 57.5057 98.5002 56.9483 98.5002 56.2706C98.5002 55.5928 98.6722 55.0321 99.0128 54.5917C99.3569 54.1513 99.8213 53.9311 100.41 53.9311C100.778 53.9311 101.129 54.0275 101.459 54.2201C101.789 54.4128 102.04 54.6467 102.205 54.9254V57.6261Z" fill="white"/>
<path id="Vector_22" d="M106.942 53.4004C106.157 53.4004 105.524 53.6722 105.043 54.2192C104.561 54.7662 104.32 55.444 104.32 56.2593C104.32 57.0747 104.561 57.7559 105.043 58.3029C105.524 58.8534 106.157 59.1286 106.942 59.1286C107.726 59.1286 108.37 58.8534 108.851 58.3029C109.333 57.7525 109.574 57.0713 109.574 56.2593C109.574 55.4474 109.333 54.7662 108.851 54.2192C108.37 53.6722 107.733 53.4004 106.942 53.4004ZM108.404 57.9142C108.046 58.3683 107.558 58.5988 106.942 58.5988C106.326 58.5988 105.848 58.3683 105.49 57.9107C105.132 57.4497 104.953 56.9027 104.953 56.2628C104.953 55.6229 105.132 55.0759 105.49 54.6183C105.848 54.1642 106.333 53.9336 106.942 53.9336C107.551 53.9336 108.046 54.1607 108.404 54.6183C108.762 55.0724 108.941 55.6229 108.941 56.2628C108.941 56.9027 108.762 57.4635 108.404 57.9176V57.9142Z" fill="white"/>
<path id="Vector_23" d="M116.68 53.3999C116.319 53.3999 115.968 53.5031 115.631 53.7096C115.294 53.916 115.039 54.1568 114.874 54.4252C114.798 54.1327 114.64 53.885 114.399 53.6924C114.158 53.4963 113.838 53.3999 113.439 53.3999C113.085 53.3999 112.737 53.5066 112.393 53.7164C112.049 53.9263 111.812 54.143 111.674 54.3598V53.5341H111.086V58.9905H111.674V54.8655C111.846 54.6109 112.08 54.3908 112.376 54.205C112.669 54.0192 112.958 53.9297 113.236 53.9297C113.966 53.9297 114.334 54.3426 114.334 55.1717V58.9905H114.932V54.8552C115.091 54.6006 115.318 54.3804 115.617 54.2015C115.913 54.0192 116.205 53.9297 116.494 53.9297C117.224 53.9297 117.588 54.3426 117.588 55.1717V58.9905H118.177V55.0582C118.177 53.9504 117.681 53.3965 116.687 53.3965L116.68 53.3999Z" fill="white"/>
<path id="Vector_24" d="M126.325 51.332C125.234 51.332 124.35 51.7002 123.676 52.4398C123.001 53.1761 122.664 54.1084 122.664 55.23C122.664 56.3515 123.001 57.2839 123.676 58.0201C124.35 58.7598 125.234 59.1279 126.325 59.1279C127.415 59.1279 128.289 58.7598 128.967 58.0201C129.645 57.2804 129.985 56.3515 129.985 55.23C129.985 54.1084 129.645 53.1761 128.967 52.4398C128.289 51.7002 127.408 51.332 126.325 51.332ZM128.482 57.6073C127.931 58.23 127.212 58.5396 126.325 58.5396C125.437 58.5396 124.697 58.23 124.157 57.6073C123.614 56.9846 123.345 56.1933 123.345 55.23C123.345 54.2667 123.617 53.4651 124.157 52.8458C124.701 52.23 125.423 51.9203 126.325 51.9203C127.226 51.9203 127.942 52.23 128.489 52.8458C129.036 53.4651 129.307 54.2564 129.307 55.23C129.307 56.2036 129.032 56.988 128.482 57.6073Z" fill="white"/>
<path id="Vector_25" d="M132.144 51.7959C131.879 52.0952 131.749 52.5115 131.749 53.0379V53.5333H130.844V54.0528H131.749V58.9898H132.337V54.0528H133.445V53.5333H132.337V53.0379C132.337 52.2466 132.653 51.851 133.286 51.851C133.551 51.851 133.785 51.9439 133.988 52.1331L134.27 51.7271C133.978 51.4725 133.63 51.3418 133.231 51.3418C132.77 51.3418 132.409 51.4932 132.148 51.7925L132.144 51.7959Z" fill="white"/>
<path id="Vector_26" d="M137.492 58.9929H138.136V55.4218H142.192V54.8335H138.136V52.0434H142.271V51.4551H137.492V58.9929Z" fill="white"/>
<path id="Vector_27" d="M145.903 53.4004C145.118 53.4004 144.485 53.6722 144.004 54.2192C143.522 54.7662 143.281 55.444 143.281 56.2593C143.281 57.0747 143.522 57.7559 144.004 58.3029C144.485 58.8534 145.118 59.1286 145.903 59.1286C146.687 59.1286 147.331 58.8534 147.812 58.3029C148.294 57.7525 148.535 57.0713 148.535 56.2593C148.535 55.4474 148.294 54.7662 147.812 54.2192C147.331 53.6722 146.694 53.4004 145.903 53.4004ZM147.365 57.9142C147.007 58.3683 146.519 58.5988 145.903 58.5988C145.287 58.5988 144.809 58.3683 144.451 57.9107C144.093 57.4497 143.914 56.9027 143.914 56.2628C143.914 55.6229 144.093 55.0759 144.451 54.6183C144.809 54.1642 145.294 53.9336 145.903 53.9336C146.512 53.9336 147.007 54.1607 147.365 54.6183C147.723 55.0724 147.902 55.6229 147.902 56.2628C147.902 56.9027 147.723 57.4635 147.365 57.9176V57.9142Z" fill="white"/>
<path id="Vector_28" d="M153.727 57.6931C153.538 57.9477 153.28 58.1644 152.953 58.3364C152.626 58.5085 152.293 58.5979 151.952 58.5979C151.522 58.5979 151.195 58.4981 150.968 58.2986C150.741 58.099 150.627 57.7481 150.627 57.2424V53.5371H150.039V57.3766C150.039 57.9786 150.184 58.4224 150.469 58.7046C150.755 58.9867 151.185 59.1277 151.756 59.1277C152.124 59.1277 152.482 59.0383 152.829 58.8628C153.177 58.6874 153.473 58.4603 153.72 58.1919V58.9935H154.309V53.5371H153.72V57.6931H153.727Z" fill="white"/>
<path id="Vector_29" d="M156.729 54.4746V53.5354H156.141V58.9918H156.729V55.0148C156.856 54.7739 157.08 54.5503 157.396 54.3473C157.713 54.1444 158.005 54.0411 158.277 54.0411C158.404 54.0411 158.504 54.048 158.57 54.0652V53.4219C157.878 53.4219 157.262 53.7728 156.729 54.4712V54.4746Z" fill="white"/>
<path id="Vector_30" d="M168.775 58.0881L166.935 51.4551H166.346L164.496 58.0881L162.676 51.4551H161.953L164.11 58.9929H164.833L166.642 52.5182L168.449 58.9929H169.171L171.318 51.4551H170.595L168.775 58.0881Z" fill="white"/>
<path id="Vector_31" d="M175.006 53.3989C174.638 53.3989 174.273 53.4952 173.912 53.6879C173.551 53.8805 173.262 54.1042 173.041 54.3588V51.4551H172.453V58.9895H173.041V54.8645C173.224 54.5996 173.478 54.3794 173.809 54.1971C174.139 54.0147 174.476 53.9253 174.813 53.9253C175.243 53.9253 175.57 54.025 175.797 54.2246C176.024 54.4241 176.138 54.7716 176.138 55.2705V58.9861H176.726V55.1466C176.726 53.9803 176.155 53.3955 175.009 53.3955L175.006 53.3989Z" fill="white"/>
<path id="Vector_32" d="M180.858 53.3999C180.105 53.3999 179.479 53.6752 178.977 54.2291C178.474 54.783 178.227 55.4573 178.227 56.2554C178.227 57.0983 178.481 57.7899 178.994 58.3231C179.506 58.8564 180.16 59.1247 180.958 59.1247C181.818 59.1247 182.527 58.8323 183.095 58.244L182.789 57.8587C182.321 58.3644 181.725 58.6155 181.003 58.6155C180.377 58.6155 179.874 58.4091 179.489 57.9928C179.104 57.58 178.897 57.0639 178.866 56.4447H183.432V56.2864C183.432 55.4642 183.201 54.7795 182.744 54.2256C182.283 53.6717 181.657 53.3965 180.858 53.3965V53.3999ZM178.87 55.9871C178.894 55.4538 179.08 54.9722 179.431 54.5456C179.782 54.119 180.253 53.9057 180.848 53.9057C181.481 53.9057 181.97 54.119 182.31 54.549C182.654 54.9791 182.83 55.4573 182.837 55.9837H178.87V55.9871Z" fill="white"/>
<path id="Vector_33" d="M187.273 53.3999C186.519 53.3999 185.893 53.6752 185.391 54.2291C184.888 54.783 184.641 55.4573 184.641 56.2554C184.641 57.0983 184.895 57.7899 185.408 58.3231C185.92 58.8564 186.574 59.1247 187.372 59.1247C188.232 59.1247 188.941 58.8323 189.509 58.244L189.203 57.8587C188.735 58.3644 188.139 58.6155 187.417 58.6155C186.791 58.6155 186.289 58.4091 185.903 57.9928C185.518 57.58 185.312 57.0639 185.281 56.4447H189.846V56.2864C189.846 55.4642 189.615 54.7795 189.158 54.2256C188.697 53.6717 188.071 53.3965 187.273 53.3965V53.3999ZM185.284 55.9871C185.308 55.4538 185.494 54.9722 185.845 54.5456C186.196 54.119 186.667 53.9057 187.262 53.9057C187.895 53.9057 188.384 54.119 188.724 54.549C189.068 54.9791 189.24 55.4573 189.251 55.9837H185.284V55.9871Z" fill="white"/>
<path id="Vector_34" d="M191.94 51.4551H191.352V58.9895H191.94V51.4551Z" fill="white"/>
<path id="Vector_35" d="M196.224 56.077C195.883 55.9807 195.549 55.8912 195.212 55.8121C194.879 55.733 194.59 55.6229 194.352 55.4784C194.115 55.3339 193.998 55.1378 193.998 54.8901C193.998 54.6045 194.122 54.3671 194.369 54.1779C194.617 53.9887 194.951 53.8958 195.364 53.8958C196.093 53.8958 196.637 54.1366 196.991 54.6183L197.318 54.202C196.836 53.6687 196.186 53.4004 195.364 53.4004C194.768 53.4004 194.297 53.5449 193.946 53.8339C193.595 54.1229 193.42 54.4841 193.42 54.9142C193.42 55.2754 193.537 55.5644 193.774 55.7846C194.012 56.0048 194.301 56.1596 194.638 56.2525C194.975 56.3454 195.312 56.4314 195.649 56.5105C195.983 56.5896 196.272 56.71 196.509 56.8717C196.747 57.0334 196.864 57.2502 196.864 57.522C196.864 57.8454 196.733 58.1103 196.468 58.3167C196.203 58.5231 195.849 58.6263 195.405 58.6263C195.037 58.6263 194.696 58.5506 194.387 58.3993C194.077 58.2479 193.829 58.0552 193.64 57.8213L193.289 58.2616C193.809 58.8327 194.51 59.1217 195.391 59.1217C196.045 59.1217 196.551 58.9704 196.905 58.671C197.259 58.3717 197.435 57.9864 197.435 57.5185C197.435 57.1332 197.318 56.8201 197.08 56.5793C196.843 56.3385 196.554 56.1699 196.217 56.0701L196.224 56.077Z" fill="white"/>
</g>
</svg>
